{
  "source": "C:\\Users\\Peter\\Desktop\\stuff\\MIUN\\quantitative_research\\video_compression\\videos\\BVI-HD\\BVI-HD_CDVL_videos\\ORIG\\SmokeGuns_1920x1080_60fps.mp4",
  "output": "C:\\Users\\Peter\\Desktop\\stuff\\MIUN\\quantitative_research\\video_compression\\compressed_videos\\BVI-HD\\av1\\1.5\\SmokeGuns_1920x1080_60fps_av1.mkv",
  "codec": "av1",
  "ok": "Input #0, mov,mp4,m4a,3gp,3g2,mj2, from 'C:\\Users\\Peter\\Desktop\\stuff\\MIUN\\quantitative_research\\video_compression\\videos\\BVI-HD\\BVI-HD_CDVL_videos\\ORIG\\SmokeGuns_1920x1080_60fps.mp4':\n  Metadata:\n    major_brand     : isom\n    minor_version   : 512\n    compatible_brands: isomiso2avc1mp41\n    encoder         : Lavf54.28.101\n  Duration: 00:00:05.00, start: 0.000000, bitrate: 384353 kb/s\n  Stream #0:0[0x1](und): Video: h264 (High 4:4:4 Predictive) (avc1 / 0x31637661), yuv420p(progressive), 1920x1080, 384348 kb/s, 60 fps, 60 tbr, 60 tbn (default)\n    Metadata:\n      handler_name    : VideoHandler\n      vendor_id       : [0][0][0][0]\n[out#0/matroska @ 00000275144b96c0] Codec AVOption b:a (set bitrate (in bits/s)) has not been used for any stream. The most likely reason is either wrong type (e.g. a video option with no video streams) or that it is a private option of some decoder which was not actually used for any stream.\nStream mapping:\n  Stream #0:0 -> #0:0 (h264 (native) -> av1 (libsvtav1))\nPress [q] to stop, [?] for help\nSvt[info]: -------------------------------------------\nSvt[info]: SVT [version]:\tSVT-AV1 Encoder Lib v3.1.0-19-g6ecfe8ec\nSvt[info]: SVT [build]  :\tGCC 15.2.0\t 64 bit\nSvt[info]: LIB Build date: Aug 17 2025 11:37:13\nSvt[info]: -------------------------------------------\nSvt[info]: Level of Parallelism: 5\nSvt[info]: Number of PPCS 93\nSvt[info]: [asm level on system : up to avx2]\nSvt[info]: [asm level selected : up to avx2]\nSvt[info]: -------------------------------------------\nSvt[info]: SVT [config]: main profile\ttier (auto)\tlevel (auto)\nSvt[info]: SVT [config]: width / height / fps numerator / fps denominator \t\t: 1920 / 1080 / 60 / 1\nSvt[info]: SVT [config]: bit-depth / color format \t\t\t\t\t: 8 / YUV420\nSvt[info]: SVT [config]: preset / tune / pred struct \t\t\t\t\t: 4 / PSNR / random access\nSvt[info]: SVT [config]: gop size / mini-gop size / key-frame type \t\t\t: 321 / 16 / key frame\nSvt[info]: SVT [config]: BRC mode / target bitrate (kbps)\t\t\t\t: VBR / 1500 \nSvt[info]: SVT [config]: AQ mode / Variance Boost \t\t\t\t\t: 2 / 0\nSvt[info]: SVT [config]: sharpness / luminance-based QP bias \t\t\t\t: 0 / 0\nSvt[info]: SVT [config]: QP scale compress strength \t\t\t\t\t: 0\nSvt[info]: -------------------------------------------\nOutput #0, matroska, to 'C:\\Users\\Peter\\Desktop\\stuff\\MIUN\\quantitative_research\\video_compression\\compressed_videos\\BVI-HD\\av1\\1.5\\SmokeGuns_1920x1080_60fps_av1.mkv':\n  Metadata:\n    major_brand     : isom\n    minor_version   : 512\n    compatible_brands: isomiso2avc1mp41\n    encoder         : Lavf62.3.100\n  Stream #0:0(und): Video: av1 (AV01 / 0x31305641), yuv420p(tv, progressive), 1920x1080, q=2-31, 1500 kb/s, 60 fps, 1k tbn (default)\n    Metadata:\n      encoder         : Lavc62.11.100 libsvtav1\n      handler_name    : VideoHandler\n      vendor_id       : [0][0][0][0]\n    Side data:\n      cpb: bitrate max/min/avg: 0/0/1500000 buffer size: 1500000 vbv_delay: N/A\nframe=    0 fps=0.0 q=0.0 size=       0KiB time=N/A bitrate=N/A speed=N/A elapsed=0:00:01.03    \nframe=    0 fps=0.0 q=0.0 size=       0KiB time=N/A bitrate=N/A speed=N/A elapsed=0:00:01.55    \nframe=    0 fps=0.0 q=0.0 size=       0KiB time=N/A bitrate=N/A speed=N/A elapsed=0:00:02.08    \nframe=    0 fps=0.0 q=0.0 size=       0KiB time=N/A bitrate=N/A speed=N/A elapsed=0:00:02.60    \nframe=    1 fps=0.3 q=23.0 size=       1KiB time=00:00:00.00 bitrate=N/A speed=   0x elapsed=0:00:03.12    \nframe=    1 fps=0.3 q=23.0 size=       1KiB time=00:00:00.00 bitrate=N/A speed=   0x elapsed=0:00:03.63    \nframe=    9 fps=2.2 q=43.0 size=       1KiB time=00:00:00.11 bitrate=  48.8kbits/s speed=0.0281x elapsed=0:00:04.15    \nframe=   17 fps=3.6 q=32.0 size=       1KiB time=00:00:00.26 bitrate=  21.4kbits/s speed=0.0564x elapsed=0:00:04.72    \nframe=   23 fps=4.4 q=46.0 size=       1KiB time=00:00:00.36 bitrate=  15.5kbits/s speed=0.0699x elapsed=0:00:05.24    \nframe=   32 fps=5.5 q=42.0 size=       1KiB time=00:00:00.51 bitrate=  11.0kbits/s speed=0.0896x elapsed=0:00:05.76    \nframe=   38 fps=6.0 q=37.0 size=       1KiB time=00:00:00.61 bitrate=   9.2kbits/s speed=0.0978x elapsed=0:00:06.30    \nframe=   44 fps=6.4 q=36.0 size=       1KiB time=00:00:00.71 bitrate=   7.9kbits/s speed=0.105x elapsed=0:00:06.83    \nframe=   51 fps=6.9 q=40.0 size=       1KiB time=00:00:00.83 bitrate=   6.8kbits/s speed=0.113x elapsed=0:00:07.38    \nframe=   56 fps=7.1 q=38.0 size=       1KiB time=00:00:00.91 bitrate=   6.2kbits/s speed=0.116x elapsed=0:00:07.92    \nframe=   61 fps=7.2 q=43.0 size=       1KiB time=00:00:01.00 bitrate=   5.7kbits/s speed=0.118x elapsed=0:00:08.46    \nframe=   69 fps=7.7 q=46.0 size=       1KiB time=00:00:01.13 bitrate=   5.0kbits/s speed=0.126x elapsed=0:00:09.00    \nframe=   75 fps=7.8 q=44.0 size=       1KiB time=00:00:01.21 bitrate=   4.7kbits/s speed=0.127x elapsed=0:00:09.55    \nframe=   81 fps=8.0 q=25.0 size=       1KiB time=00:00:01.33 bitrate=   4.3kbits/s speed=0.132x elapsed=0:00:10.11    \nframe=   87 fps=8.2 q=44.0 size=       1KiB time=00:00:01.43 bitrate=   4.0kbits/s speed=0.135x elapsed=0:00:10.63    \nframe=   94 fps=8.4 q=39.0 size=       1KiB time=00:00:01.55 bitrate=   3.7kbits/s speed=0.139x elapsed=0:00:11.16    \nframe=  102 fps=8.7 q=41.0 size=       1KiB time=00:00:01.68 bitrate=   3.4kbits/s speed=0.144x elapsed=0:00:11.71    \nframe=  107 fps=8.7 q=45.0 size=       1KiB time=00:00:01.76 bitrate=   3.2kbits/s speed=0.144x elapsed=0:00:12.23    \nframe=  114 fps=8.9 q=41.0 size=       1KiB time=00:00:01.88 bitrate=   3.0kbits/s speed=0.148x elapsed=0:00:12.75    \nframe=  121 fps=9.1 q=41.0 size=       1KiB time=00:00:02.00 bitrate=   2.8kbits/s speed=0.151x elapsed=0:00:13.28    \nframe=  128 fps=9.3 q=41.0 size=       1KiB time=00:00:02.11 bitrate=   2.7kbits/s speed=0.153x elapsed=0:00:13.81    \nframe=  135 fps=9.4 q=44.0 size=       1KiB time=00:00:02.23 bitrate=   2.6kbits/s speed=0.156x elapsed=0:00:14.34    \nframe=  145 fps=9.8 q=25.0 size=       1KiB time=00:00:02.40 bitrate=   2.4kbits/s speed=0.161x elapsed=0:00:14.86    \nframe=  152 fps=9.9 q=41.0 size=       1KiB time=00:00:02.51 bitrate=   2.3kbits/s speed=0.163x elapsed=0:00:15.41    \nframe=  160 fps= 10 q=41.0 size=       1KiB time=00:00:02.65 bitrate=   2.1kbits/s speed=0.166x elapsed=0:00:16.00    \nframe=  167 fps= 10 q=43.0 size=       1KiB time=00:00:02.76 bitrate=   2.1kbits/s speed=0.167x elapsed=0:00:16.54    \nframe=  173 fps= 10 q=45.0 size=       1KiB time=00:00:02.86 bitrate=   2.0kbits/s speed=0.168x elapsed=0:00:17.08    \nframe=  182 fps= 10 q=42.0 size=       1KiB time=00:00:03.01 bitrate=   1.9kbits/s speed=0.171x elapsed=0:00:17.60    \nframe=  189 fps= 10 q=43.0 size=       1KiB time=00:00:03.13 bitrate=   1.8kbits/s speed=0.173x elapsed=0:00:18.12    \nframe=  197 fps= 11 q=44.0 size=       1KiB time=00:00:03.26 bitrate=   1.7kbits/s speed=0.175x elapsed=0:00:18.65    \nframe=  209 fps= 11 q=25.0 size=       1KiB time=00:00:03.46 bitrate=   1.6kbits/s speed=0.181x elapsed=0:00:19.17    \nframe=  217 fps= 11 q=41.0 size=       1KiB time=00:00:03.60 bitrate=   1.6kbits/s speed=0.183x elapsed=0:00:19.72    \nframe=  229 fps= 11 q=44.0 size=       1KiB time=00:00:03.80 bitrate=   1.5kbits/s speed=0.188x elapsed=0:00:20.24    \nframe=  237 fps= 11 q=44.0 size=       1KiB time=00:00:03.93 bitrate=   1.4kbits/s speed=0.189x elapsed=0:00:20.76    \nframe=  251 fps= 12 q=43.0 size=       1KiB time=00:00:04.16 bitrate=   1.4kbits/s speed=0.196x elapsed=0:00:21.28    \nframe=  261 fps= 12 q=42.0 size=       1KiB time=00:00:04.33 bitrate=   1.3kbits/s speed=0.199x elapsed=0:00:21.81    \nframe=  269 fps= 12 q=42.0 size=       1KiB time=00:00:04.46 bitrate=   1.3kbits/s speed= 0.2x elapsed=0:00:22.34    \nframe=  277 fps= 12 q=43.0 size=       1KiB time=00:00:04.60 bitrate=   1.2kbits/s speed=0.201x elapsed=0:00:22.88    \nframe=  287 fps= 12 q=43.0 size=       1KiB time=00:00:04.76 bitrate=   1.2kbits/s speed=0.204x elapsed=0:00:23.41    \n[out#0/matroska @ 00000275144b96c0] video:898KiB audio:0KiB subtitle:0KiB other streams:0KiB global headers:0KiB muxing overhead: 0.231238%\nframe=  300 fps= 13 q=49.0 Lsize=     900KiB time=00:00:04.98 bitrate=1480.1kbits/s speed=0.212x elapsed=0:00:23.55    \n",
  "seconds": 23.974812030792236,
  "probe_out": {}
}